# xmcd CD database file
#
# Track frame offsets:
#	150
#	8563
#	26508
#	47314
#	68719
#	91979
#
# Disc length: 1654 seconds
#
# Revision: 0
# Processed by: cddbd v1.5.1PL0 Copyright (c) Steve Scherf et al.
# Submitted via: CDex 1.40Beta8
#
DISCID=37067406
DTITLE=opossition of one - i try to understand this
DYEAR=2002
DGENRE=Country
TTITLE0=intro
TTITLE1=something astonished
TTITLE2=before the sunrise
TTITLE3=against all evil
TTITLE4=dishonest
TTITLE5=point of no return
EXTD=YEAR: 2002 ID3G: 2
EXTT0=
EXTT1=
EXTT2=
EXTT3=
EXTT4=
EXTT5=
PLAYORDER=
